<?xml version="1.0" encoding="UTF-8"?>
<svg xmlns="http://www.w3.org/2000/svg" xmlns:xlink="http://www.w3.org/1999/xlink" width="150pt" height="149.999998pt" viewBox="0 0 150 149.999998" version="1.2">
<defs>
<clipPath id="clip1">
  <path d="M 116 130 L 140.714844 130 L 140.714844 145.710938 L 116 145.710938 Z M 116 130 "/>
</clipPath>
<clipPath id="clip2">
  <path d="M 9.464844 101 L 24 101 L 24 112 L 9.464844 112 Z M 9.464844 101 "/>
</clipPath>
</defs>
<g id="surface1">
<path style=" stroke:none;fill-rule:nonzero;fill:rgb(12.159729%,27.449036%,38.42926%);fill-opacity:1;" d="M 27.023438 72.625 C 20.015625 72.625 14.734375 75.949219 14.734375 80.359375 C 14.734375 84.769531 20.015625 88.097656 27.023438 88.097656 C 34.03125 88.097656 39.316406 84.769531 39.316406 80.359375 C 39.316406 75.949219 34.03125 72.625 27.023438 72.625 Z M 27.023438 83.675781 C 22.320312 83.675781 19.203125 81.679688 19.203125 80.359375 C 19.203125 79.039062 22.320312 77.046875 27.023438 77.046875 C 31.726562 77.046875 34.84375 79.039062 34.84375 80.359375 C 34.84375 81.679688 31.726562 83.675781 27.023438 83.675781 Z M 27.023438 83.675781 "/>
<path style=" stroke:none;fill-rule:nonzero;fill:rgb(12.159729%,27.449036%,38.42926%);fill-opacity:1;" d="M 111.664062 79.898438 C 104.5625 79.898438 99.203125 83.265625 99.203125 87.730469 C 99.203125 92.195312 104.5625 95.558594 111.664062 95.558594 C 118.765625 95.558594 124.121094 92.195312 124.121094 87.730469 C 124.121094 83.265625 118.765625 79.898438 111.664062 79.898438 Z M 111.664062 91.136719 C 106.859375 91.136719 103.675781 89.085938 103.675781 87.730469 C 103.675781 86.375 106.859375 84.320312 111.664062 84.320312 C 116.46875 84.320312 119.652344 86.375 119.652344 87.730469 C 119.652344 89.085938 116.46875 91.136719 111.664062 91.136719 Z M 111.664062 91.136719 "/>
<g clip-path="url(#clip1)" clip-rule="nonzero">
<path style=" stroke:none;fill-rule:nonzero;fill:rgb(12.159729%,27.449036%,38.42926%);fill-opacity:1;" d="M 128.425781 130.101562 C 121.417969 130.101562 116.132812 133.425781 116.132812 137.835938 C 116.132812 142.25 121.417969 145.574219 128.425781 145.574219 C 135.429688 145.574219 140.714844 142.25 140.714844 137.835938 C 140.714844 133.425781 135.429688 130.101562 128.425781 130.101562 Z M 128.425781 141.152344 C 123.722656 141.152344 120.601562 139.15625 120.601562 137.835938 C 120.601562 136.519531 123.722656 134.523438 128.425781 134.523438 C 133.125 134.523438 136.246094 136.519531 136.246094 137.835938 C 136.246094 139.15625 133.125 141.152344 128.425781 141.152344 Z M 128.425781 141.152344 "/>
</g>
<path style=" stroke:none;fill-rule:nonzero;fill:rgb(12.159729%,27.449036%,38.42926%);fill-opacity:1;" d="M 72.941406 123.128906 L 112.058594 135.128906 C 112.476562 133.6875 113.230469 132.359375 114.257812 131.175781 L 75.140625 119.175781 C 74.722656 120.617188 73.972656 121.949219 72.941406 123.128906 Z M 72.941406 123.128906 "/>
<path style=" stroke:none;fill-rule:nonzero;fill:rgb(12.159729%,27.449036%,38.42926%);fill-opacity:1;" d="M 58.777344 108.730469 C 51.769531 108.730469 46.484375 112.058594 46.484375 116.46875 C 46.484375 120.878906 51.769531 124.207031 58.777344 124.207031 C 65.785156 124.207031 71.066406 120.878906 71.066406 116.46875 C 71.066406 112.058594 65.785156 108.730469 58.777344 108.730469 Z M 58.777344 119.785156 C 54.074219 119.785156 50.953125 117.789062 50.953125 116.46875 C 50.953125 115.148438 54.074219 113.152344 58.777344 113.152344 C 63.476562 113.152344 66.597656 115.148438 66.597656 116.46875 C 66.597656 117.789062 63.476562 119.785156 58.777344 119.785156 Z M 58.777344 119.785156 "/>
<path style=" stroke:none;fill-rule:nonzero;fill:rgb(12.159729%,27.449036%,38.42926%);fill-opacity:1;" d="M 49.132812 49.933594 C 49.160156 49.601562 49.203125 49.261719 49.289062 48.917969 L 50.289062 44.9375 C 44.835938 46.371094 40.710938 48.671875 40.710938 52.222656 C 40.710938 59.625 58.621094 61.597656 69.203125 61.597656 C 79.785156 61.597656 97.695312 59.625 97.695312 52.222656 C 97.695312 48.671875 93.574219 46.371094 88.117188 44.9375 L 89.117188 48.917969 C 89.210938 49.285156 89.238281 49.613281 89.238281 49.921875 C 91.621094 50.738281 92.996094 51.585938 93.21875 52.222656 C 92.621094 53.925781 83.730469 57.175781 69.203125 57.175781 C 54.574219 57.175781 45.65625 53.878906 45.175781 52.257812 C 45.355469 51.621094 46.722656 50.761719 49.132812 49.933594 Z M 49.132812 49.933594 "/>
<path style=" stroke:none;fill-rule:nonzero;fill:rgb(12.159729%,27.449036%,38.42926%);fill-opacity:1;" d="M 57.574219 41.242188 C 56.546875 41.242188 55.652344 41.933594 55.402344 42.921875 L 53.628906 49.984375 C 53.460938 50.644531 53.613281 51.34375 54.035156 51.878906 C 54.460938 52.414062 55.109375 52.726562 55.796875 52.726562 L 82.613281 52.726562 C 83.300781 52.726562 83.949219 52.414062 84.375 51.878906 C 84.796875 51.34375 84.949219 50.644531 84.78125 49.984375 L 83.003906 42.921875 C 82.757812 41.933594 81.863281 41.242188 80.835938 41.242188 L 79.609375 41.242188 C 77.910156 39.011719 77.050781 35.542969 77.050781 30.894531 C 77.050781 25.558594 78.1875 21.765625 80.425781 19.628906 C 81.082031 19.003906 81.289062 18.046875 80.945312 17.210938 C 80.605469 16.375 79.785156 15.828125 78.875 15.828125 L 71.4375 15.828125 L 71.4375 13.671875 L 74.582031 13.671875 C 75.816406 13.671875 76.816406 12.683594 76.816406 11.460938 C 76.816406 10.242188 75.816406 9.25 74.582031 9.25 L 71.4375 9.25 L 71.4375 6.304688 C 71.4375 5.082031 70.4375 4.09375 69.203125 4.09375 C 67.96875 4.09375 66.96875 5.082031 66.96875 6.304688 L 66.96875 9.25 L 63.828125 9.25 C 62.59375 9.25 61.59375 10.242188 61.59375 11.460938 C 61.59375 12.683594 62.59375 13.671875 63.828125 13.671875 L 66.96875 13.671875 L 66.96875 15.828125 L 59.535156 15.828125 C 58.625 15.828125 57.800781 16.375 57.460938 17.210938 C 57.121094 18.046875 57.328125 19.003906 57.984375 19.628906 C 60.222656 21.765625 61.359375 25.558594 61.359375 30.894531 C 61.359375 35.542969 60.496094 39.011719 58.796875 41.242188 Z M 74.582031 20.25 C 73.238281 23.019531 72.582031 26.542969 72.582031 30.894531 C 72.582031 35.097656 73.199219 38.519531 74.453125 41.242188 L 63.957031 41.242188 C 65.207031 38.519531 65.828125 35.097656 65.828125 30.894531 C 65.828125 26.542969 65.167969 23.019531 63.824219 20.25 Z M 79.089844 45.664062 L 79.753906 48.304688 L 58.65625 48.304688 L 59.320312 45.664062 Z M 79.089844 45.664062 "/>
<g clip-path="url(#clip2)" clip-rule="nonzero">
<path style=" stroke:none;fill-rule:nonzero;fill:rgb(12.159729%,27.449036%,38.42926%);fill-opacity:1;" d="M 23.210938 102.445312 C 22.53125 101.429688 21.144531 101.144531 20.113281 101.820312 L 16.6875 104.054688 L 13.261719 101.820312 C 12.234375 101.144531 10.847656 101.429688 10.167969 102.445312 C 9.488281 103.464844 9.773438 104.835938 10.800781 105.507812 L 12.632812 106.703125 L 10.800781 107.898438 C 9.773438 108.570312 9.488281 109.941406 10.167969 110.960938 C 10.597656 111.605469 11.308594 111.953125 12.035156 111.953125 C 12.457031 111.953125 12.882812 111.835938 13.261719 111.589844 L 16.6875 109.351562 L 20.113281 111.589844 C 20.492188 111.835938 20.921875 111.953125 21.34375 111.953125 C 22.066406 111.953125 22.78125 111.605469 23.210938 110.960938 C 23.890625 109.941406 23.605469 108.570312 22.574219 107.898438 L 20.746094 106.703125 L 22.574219 105.507812 C 23.605469 104.835938 23.890625 103.464844 23.210938 102.445312 Z M 23.210938 102.445312 "/>
</g>
<path style=" stroke:none;fill-rule:nonzero;fill:rgb(12.159729%,27.449036%,38.42926%);fill-opacity:1;" d="M 134.757812 105.210938 C 134.078125 104.191406 132.695312 103.910156 131.664062 104.582031 L 128.238281 106.820312 L 124.8125 104.582031 C 123.785156 103.910156 122.394531 104.191406 121.71875 105.210938 C 121.039062 106.230469 121.320312 107.601562 122.351562 108.273438 L 124.183594 109.46875 L 122.351562 110.664062 C 121.320312 111.335938 121.039062 112.707031 121.71875 113.726562 C 122.148438 114.367188 122.859375 114.71875 123.585938 114.71875 C 124.007812 114.71875 124.433594 114.601562 124.8125 114.351562 L 128.238281 112.117188 L 131.664062 114.351562 C 132.042969 114.601562 132.46875 114.71875 132.890625 114.71875 C 133.617188 114.71875 134.328125 114.367188 134.757812 113.726562 C 135.4375 112.707031 135.15625 111.335938 134.125 110.664062 L 132.292969 109.46875 L 134.125 108.273438 C 135.15625 107.601562 135.4375 106.230469 134.757812 105.210938 Z M 134.757812 105.210938 "/>
<path style=" stroke:none;fill-rule:nonzero;fill:rgb(12.159729%,27.449036%,38.42926%);fill-opacity:1;" d="M 107.105469 61.550781 C 106.425781 60.53125 105.039062 60.25 104.007812 60.921875 L 100.582031 63.160156 L 97.160156 60.921875 C 96.132812 60.25 94.742188 60.53125 94.0625 61.550781 C 93.382812 62.570312 93.667969 63.941406 94.695312 64.613281 L 96.527344 65.808594 L 94.695312 67.003906 C 93.667969 67.675781 93.382812 69.046875 94.0625 70.0625 C 94.492188 70.707031 95.203125 71.058594 95.929688 71.058594 C 96.351562 71.058594 96.78125 70.941406 97.160156 70.691406 L 100.582031 68.457031 L 104.007812 70.691406 C 104.386719 70.941406 104.816406 71.058594 105.238281 71.058594 C 105.960938 71.058594 106.675781 70.707031 107.105469 70.0625 C 107.785156 69.046875 107.5 67.675781 106.46875 67.003906 L 104.640625 65.808594 L 106.46875 64.613281 C 107.5 63.941406 107.785156 62.570312 107.105469 61.550781 Z M 107.105469 61.550781 "/>
<path style=" stroke:none;fill-rule:nonzero;fill:rgb(12.159729%,27.449036%,38.42926%);fill-opacity:1;" d="M 100.496094 97.074219 C 99.070312 96.191406 97.871094 95.132812 96.9375 93.933594 L 70.652344 107.730469 C 71.976562 108.679688 73.058594 109.800781 73.875 111.046875 Z M 100.496094 97.074219 "/>
<path style=" stroke:none;fill-rule:nonzero;fill:rgb(12.159729%,27.449036%,38.42926%);fill-opacity:1;" d="M 94.777344 88.371094 C 94.761719 88.15625 94.734375 87.945312 94.734375 87.730469 C 94.734375 86.414062 94.996094 85.160156 95.476562 83.992188 L 43.738281 79.636719 C 43.753906 79.878906 43.785156 80.117188 43.785156 80.359375 C 43.785156 81.644531 43.535156 82.871094 43.070312 84.015625 Z M 94.777344 88.371094 "/>
<path style=" stroke:none;fill-rule:nonzero;fill:rgb(12.159729%,27.449036%,38.42926%);fill-opacity:1;" d="M 52.875 64.59375 L 38.800781 71.558594 C 40.144531 72.503906 41.253906 73.625 42.085938 74.878906 L 60.726562 65.65625 C 58.242188 65.445312 55.546875 65.109375 52.875 64.59375 Z M 52.875 64.59375 "/>
</g>
</svg>
